<?xml version="1.0" standalone="no"?><!DOCTYPE svg PUBLIC "-//W3C//DTD SVG 1.1//EN" "http://www.w3.org/Graphics/SVG/1.1/DTD/svg11.dtd"><svg t="1631199725967" class="icon" viewBox="0 0 1024 1024" version="1.1" xmlns="http://www.w3.org/2000/svg" p-id="14067" xmlns:xlink="http://www.w3.org/1999/xlink" width="200" height="200"><defs><style type="text/css"></style></defs><path d="M768 785.066667H213.333333c-39.816533 0-74.308267-14.318933-102.519466-42.5472C82.5856 714.308267 68.266667 679.799467 68.266667 640s14.318933-74.308267 42.5472-102.519467C139.025067 509.252267 173.5168 494.933333 213.333333 494.933333c8.942933 0 17.6128 0.7168 25.9584 2.116267 3.3792-68.625067 30.1568-128.443733 79.7184-178.0224C372.1728 265.8816 437.0944 238.933333 512 238.933333c74.922667 0 139.8272 26.948267 192.9728 80.093867 26.88 26.897067 47.3088 57.326933 60.859733 90.589867L768 409.6c51.6096 0 96.4096 18.295467 133.137067 54.391467C937.437867 500.923733 955.733333 545.723733 955.733333 597.333333c0 51.677867-18.3296 96.221867-54.493866 132.386134C864.529067 766.446933 819.694933 785.066667 768 785.066667zM213.333333 529.066667c-30.856533 0-56.490667 10.6496-78.370133 32.546133C113.0496 583.509333 102.4 609.143467 102.4 640s10.6496 56.490667 32.546133 78.3872S182.4768 750.933333 213.333333 750.933333H768c42.922667 0 78.592-14.830933 109.1072-45.346133C907.042133 675.6352 921.6 640.238933 921.6 597.333333c0-42.9568-14.574933-78.677333-44.5952-109.2096C846.660267 458.325333 810.9568 443.733333 768 443.733333a97.28 97.28 0 0 0-11.5712 0.7168 17.134933 17.134933 0 0 1-18.193067-11.3152c-11.605333-33.194667-30.907733-63.470933-57.3952-89.975466C633.668267 295.9872 578.4576 273.066667 512 273.066667s-121.668267 22.920533-168.840533 70.0928S273.066667 445.5424 273.066667 512v6.826667a17.066667 17.066667 0 0 1-22.6816 16.128A112.247467 112.247467 0 0 0 213.333333 529.066667z" p-id="14068" fill="#ffffff"></path><path d="M515.413333 671.573333a34.133333 34.133333 0 0 1-34.133333-34.133333v-51.2h-51.2a34.133333 34.133333 0 0 1 0-68.266667h51.2v-51.2a34.133333 34.133333 0 0 1 68.266667 0v51.2h51.2a34.133333 34.133333 0 0 1 0 68.266667h-51.2v51.2a34.133333 34.133333 0 0 1-34.133334 34.133333z" p-id="14069" fill="#ffffff"></path></svg>