<svg t="1700403751622" class="icon" viewBox="0 0 1024 1024" version="1.1" xmlns="http://www.w3.org/2000/svg" p-id="4863" width="200" height="200"><path d="M64 764.330667a85.333333 85.333333 0 0 1 0-120.661334L643.669333 64a85.333333 85.333333 0 0 1 120.661334 0L938.666667 238.336a85.333333 85.333333 0 0 1 0 120.661333L358.997333 938.666667a85.333333 85.333333 0 0 1-120.661333 0L64 764.330667z m640-640L124.330667 704 298.666667 878.336 878.336 298.666667 704 124.330667zM392.832 222.165333a42.666667 42.666667 0 0 0 0-60.330666L294.997333 64a85.333333 85.333333 0 0 0-120.661333 0L64 174.336a85.333333 85.333333 0 0 0 0 120.661333l97.834667 97.834667a42.666667 42.666667 0 0 0 60.330666-60.330667L124.330667 234.666667 234.666667 124.330667l97.834666 97.834666a42.666667 42.666667 0 0 0 60.330667 0z m387.669333 448l94.165334 94.165334V874.666667h-110.336l-94.165334-94.165334a42.666667 42.666667 0 0 0-60.330666 60.330667l94.165333 94.165333a85.333333 85.333333 0 0 0 60.330667 25.002667H874.666667a85.333333 85.333333 0 0 0 85.333333-85.333333v-110.336a85.333333 85.333333 0 0 0-25.002667-60.330667l-94.165333-94.165333a42.666667 42.666667 0 0 0-60.330667 60.330666z" fill="#d4237a" p-id="4864"></path><path d="M210.304 512a42.666667 42.666667 0 0 1 60.330667 0l60.330666 60.330667a42.666667 42.666667 0 0 1-60.330666 60.373333L210.346667 572.288a42.666667 42.666667 0 0 1 0-60.330667zM361.130667 361.130667a42.666667 42.666667 0 0 1 60.373333 0l60.330667 60.373333a42.666667 42.666667 0 0 1-60.330667 60.330667L361.130667 421.504a42.666667 42.666667 0 0 1 0-60.373333zM512 210.304a42.666667 42.666667 0 0 1 60.330667 0l60.330666 60.330667a42.666667 42.666667 0 0 1-60.330666 60.330666L512 270.634667a42.666667 42.666667 0 0 1 0-60.330667z" fill="#d4237a" p-id="4865"></path></svg>