<?xml version="1.0" standalone="no"?><!DOCTYPE svg PUBLIC "-//W3C//DTD SVG 1.1//EN" "http://www.w3.org/Graphics/SVG/1.1/DTD/svg11.dtd"><svg t="1614817877729" class="icon" viewBox="0 0 1024 1024" version="1.1" xmlns="http://www.w3.org/2000/svg" p-id="5075" xmlns:xlink="http://www.w3.org/1999/xlink" width="200" height="200"><defs><style type="text/css"></style></defs><path d="M923.136 969.557333H193.024v-909.653333h521.386667l208.725333 207.701333z" fill="#e6e6e6" p-id="5076" data-spm-anchor-id="a313x.7781069.0.i12" class="selected"></path><path d="M912.896 253.952l2.56 671.914667c0 15.530667-12.458667 27.989333-27.989333 27.989333H237.909333c-15.530667 0-27.989333-12.458667-27.989333-27.989333V96.938667c0-15.530667 12.458667-27.989333 27.989333-27.989334l493.397334-1.024-38.912-39.936H239.274667c-36.352 0-65.706667 29.354667-65.706667 65.706667v835.584c0 36.352 29.354667 65.706667 65.706667 65.706667h646.826666c36.352 0 65.706667-29.354667 65.706667-65.706667V293.888l-38.912-39.936z" fill="#d4237a" p-id="5077"></path><path d="M692.394667 222.72c0 39.424 31.914667 71.338667 71.338666 71.338667h188.245334L692.394667 27.989333v194.730667z" fill="#d4237a" p-id="5078"></path><path d="M557.568 482.304H158.72c-50.346667 0-91.136-40.789333-91.136-91.136v-60.245333c0-50.346667 40.789333-91.136 91.136-91.136h398.848c50.346667 0 91.136 40.789333 91.136 91.136v60.245333c0 50.346667-40.789333 91.136-91.136 91.136z" fill="#d4237a" p-id="5079"></path><path d="M161.621333 287.573333h90.112c15.018667 0 26.624 3.754667 34.645334 11.093334 8.021333 7.509333 12.117333 16.725333 12.117333 27.648 0 9.216-2.901333 17.066667-8.533333 23.722666-3.754667 4.437333-9.386667 7.850667-16.725334 10.410667 11.264 2.730667 19.456 7.338667 24.746667 13.824s7.850667 14.848 7.850667 24.746667c0 8.021333-1.877333 15.36-5.632 21.845333s-8.874667 11.605333-15.36 15.36c-4.096 2.389333-10.069333 4.096-18.261334 5.12-10.752 1.365333-18.090667 2.048-21.504 2.048H161.621333v-155.818667z m48.469334 61.098667h20.992c7.509333 0 12.8-1.365333 15.701333-3.925333s4.437333-6.314667 4.437333-11.264c0-4.608-1.536-8.021333-4.437333-10.581334-2.901333-2.56-8.021333-3.754667-15.36-3.754666h-21.162667l-0.170666 29.525333z m0 61.098667h24.576c8.362667 0 14.165333-1.536 17.578666-4.437334 3.413333-2.901333 5.12-6.826667 5.12-11.776 0-4.608-1.706667-8.362667-5.12-11.093333s-9.216-4.266667-17.749333-4.266667h-24.405333v31.573334zM332.629333 287.573333h48.298667v155.818667h-48.298667v-155.818667zM415.744 287.573333h44.885333l58.709334 86.186667v-86.186667h45.397333v155.818667h-45.397333l-58.368-85.504v85.504h-45.226667v-155.818667z" fill="#e6e6e6" p-id="5080" data-spm-anchor-id="a313x.7781069.0.i13" class=""></path><path d="M321.365333 566.613333c12.288 0 21.845333 3.925333 28.842667 11.776 8.192 9.216 12.458667 24.576 12.458667 45.909334s-4.096 36.693333-12.458667 46.08c-6.826667 7.68-16.384 11.605333-28.672 11.605333s-22.357333-4.266667-29.866667-12.629333-11.264-23.552-11.264-45.226667c0-21.333333 4.096-36.522667 12.458667-45.909333 6.656-7.850667 16.213333-11.605333 28.501333-11.605334z m0 17.92c-2.901333 0-5.632 0.853333-7.850666 2.56-2.389333 1.706667-4.096 4.608-5.290667 9.045334-1.706667 5.632-2.56 15.018667-2.56 28.330666 0 13.312 0.682667 22.357333 2.218667 27.306667 1.536 4.949333 3.413333 8.192 5.632 9.898667s4.949333 2.389333 7.850666 2.389333 5.632-0.853333 7.850667-2.56c2.389333-1.706667 4.096-4.608 5.290667-9.045333 1.706667-5.461333 2.56-15.018667 2.56-28.16 0-13.312-0.682667-22.357333-2.218667-27.306667-1.536-4.949333-3.413333-8.192-5.632-9.898667s-4.949333-2.56-7.850667-2.56zM441.173333 679.936h-24.405333v-81.578667c-8.874667 7.338667-19.285333 12.8-31.402667 16.384v-19.626666c6.314667-1.877333 13.312-5.290667 20.650667-10.581334 7.509333-5.12 12.629333-11.264 15.36-18.090666h19.797333v113.493333zM518.656 566.613333c12.288 0 21.845333 3.925333 28.842667 11.776 8.192 9.216 12.458667 24.576 12.458666 45.909334s-4.096 36.693333-12.458666 46.08c-6.826667 7.68-16.384 11.605333-28.672 11.605333-12.288 0-22.357333-4.266667-29.866667-12.629333s-11.264-23.552-11.264-45.226667c0-21.333333 4.096-36.522667 12.458667-45.909333 6.656-7.850667 16.213333-11.605333 28.501333-11.605334z m0 17.92c-2.901333 0-5.632 0.853333-7.850667 2.56-2.389333 1.706667-4.096 4.608-5.290666 9.045334-1.706667 5.632-2.56 15.018667-2.56 28.330666 0 13.312 0.682667 22.357333 2.218666 27.306667s3.413333 8.192 5.632 9.898667 4.949333 2.389333 7.850667 2.389333 5.632-0.853333 7.850667-2.56c2.389333-1.706667 4.096-4.608 5.290666-9.045333 1.706667-5.461333 2.56-15.018667 2.56-28.16 0-13.312-0.682667-22.357333-2.218666-27.306667s-3.413333-8.192-5.632-9.898667c-2.389333-1.706667-4.949333-2.56-7.850667-2.56zM638.293333 679.936h-24.405333v-81.578667c-8.874667 7.338667-19.285333 12.8-31.402667 16.384v-19.626666c6.314667-1.877333 13.312-5.290667 20.650667-10.581334 7.509333-5.12 12.629333-11.264 15.36-18.090666H638.293333v113.493333zM727.210667 679.936h-24.405334v-81.578667c-8.874667 7.338667-19.285333 12.8-31.402666 16.384v-19.626666c6.314667-1.877333 13.312-5.290667 20.650666-10.581334 7.509333-5.12 12.629333-11.264 15.36-18.090666h19.797334v113.493333zM804.693333 566.613333c12.288 0 21.845333 3.925333 28.842667 11.776 8.192 9.216 12.458667 24.576 12.458667 45.909334s-4.096 36.693333-12.458667 46.08c-6.826667 7.68-16.384 11.605333-28.672 11.605333-12.288 0-22.357333-4.266667-29.866667-12.629333s-11.264-23.552-11.264-45.226667c0-21.333333 4.096-36.522667 12.458667-45.909333 6.656-7.850667 16.213333-11.605333 28.501333-11.605334z m0 17.92c-2.901333 0-5.632 0.853333-7.850666 2.56-2.389333 1.706667-4.096 4.608-5.290667 9.045334-1.706667 5.632-2.56 15.018667-2.56 28.330666 0 13.312 0.682667 22.357333 2.218667 27.306667s3.413333 8.192 5.632 9.898667 4.949333 2.389333 7.850666 2.389333 5.632-0.853333 7.850667-2.56c2.389333-1.706667 4.096-4.608 5.290667-9.045333 1.706667-5.461333 2.56-15.018667 2.56-28.16 0-13.312-0.682667-22.357333-2.218667-27.306667s-3.413333-8.192-5.632-9.898667c-2.389333-1.706667-4.949333-2.56-7.850667-2.56z" fill="#d4237a" p-id="5081"></path><path d="M342.528 843.093333h-24.405333v-81.578666c-8.874667 7.338667-19.285333 12.8-31.402667 16.384v-19.626667c6.314667-1.877333 13.312-5.290667 20.650667-10.581333 7.509333-5.12 12.629333-11.264 15.36-18.090667h19.797333V843.093333zM431.274667 843.093333h-24.405334v-81.578666c-8.874667 7.338667-19.285333 12.8-31.402666 16.384v-19.626667c6.314667-1.877333 13.312-5.290667 20.650666-10.581333 7.509333-5.12 12.629333-11.264 15.36-18.090667h19.797334V843.093333zM508.757333 729.770667c12.288 0 21.845333 3.925333 28.842667 11.776 8.192 9.216 12.458667 24.576 12.458667 45.909333s-4.096 36.693333-12.458667 46.08c-6.826667 7.68-16.384 11.605333-28.672 11.605333-12.288 0-22.357333-4.266667-29.866667-12.629333s-11.264-23.552-11.264-45.226667c0-21.333333 4.096-36.522667 12.458667-45.909333 6.656-7.850667 16.213333-11.605333 28.501333-11.605333z m0 17.92c-2.901333 0-5.632 0.853333-7.850666 2.56-2.389333 1.706667-4.096 4.608-5.290667 9.045333-1.706667 5.632-2.56 15.018667-2.56 28.330667 0 13.312 0.682667 22.357333 2.218667 27.306666s3.413333 8.192 5.632 9.898667 4.949333 2.389333 7.850666 2.389333 5.632-0.853333 7.850667-2.56c2.389333-1.706667 4.096-4.608 5.290667-9.045333 1.706667-5.461333 2.56-15.018667 2.56-28.16 0-13.312-0.682667-22.357333-2.218667-27.306667s-3.413333-8.192-5.632-9.898666c-2.218667-1.706667-4.778667-2.56-7.850667-2.56zM628.565333 843.093333H604.16v-81.578666c-8.874667 7.338667-19.285333 12.8-31.402667 16.384v-19.626667c6.314667-1.877333 13.312-5.290667 20.650667-10.581333 7.509333-5.12 12.629333-11.264 15.36-18.090667h19.797333V843.093333zM706.048 729.770667c12.288 0 21.845333 3.925333 28.842667 11.776 8.192 9.216 12.458667 24.576 12.458666 45.909333s-4.096 36.693333-12.458666 46.08c-6.826667 7.68-16.384 11.605333-28.672 11.605333-12.288 0-22.357333-4.266667-29.866667-12.629333s-11.264-23.552-11.264-45.226667c0-21.333333 4.096-36.522667 12.458667-45.909333 6.656-7.850667 16.213333-11.605333 28.501333-11.605333z m0 17.92c-2.901333 0-5.632 0.853333-7.850667 2.56-2.389333 1.706667-4.096 4.608-5.290666 9.045333-1.706667 5.632-2.56 15.018667-2.56 28.330667 0 13.312 0.682667 22.357333 2.218666 27.306666s3.413333 8.192 5.632 9.898667 4.949333 2.389333 7.850667 2.389333 5.632-0.853333 7.850667-2.56c2.389333-1.706667 4.096-4.608 5.290666-9.045333 1.706667-5.461333 2.56-15.018667 2.56-28.16 0-13.312-0.682667-22.357333-2.218666-27.306667s-3.413333-8.192-5.632-9.898666c-2.218667-1.706667-4.949333-2.56-7.850667-2.56zM825.856 843.093333h-24.405333v-81.578666c-8.874667 7.338667-19.285333 12.8-31.402667 16.384v-19.626667c6.314667-1.877333 13.312-5.290667 20.650667-10.581333 7.509333-5.12 12.629333-11.264 15.36-18.090667h19.797333V843.093333z" fill="#d4237a" p-id="5082"></path></svg>