<?xml version="1.0" standalone="no"?><!DOCTYPE svg PUBLIC "-//W3C//DTD SVG 1.1//EN" "http://www.w3.org/Graphics/SVG/1.1/DTD/svg11.dtd"><svg t="1588905047953" class="icon" viewBox="0 0 1024 1024" version="1.1" xmlns="http://www.w3.org/2000/svg" p-id="12526" xmlns:xlink="http://www.w3.org/1999/xlink" width="200" height="200"><defs><style type="text/css"></style></defs><path d="M512.283 964.685c-229.223 0-415.712-186.489-415.712-415.712 0-163.072 96.27-311.757 245.275-378.794 16.511-7.439 35.904-0.075 43.354 16.458 7.428 16.511 0.064 35.915-16.458 43.354-125.503 56.46-206.597 181.665-206.597 318.983 0 193.063 157.074 350.137 350.137 350.137s350.137-157.074 350.137-350.137c0-137.201-81.008-262.374-206.372-318.887-16.511-7.45-23.865-26.864-16.426-43.364 7.45-16.522 26.875-23.833 43.364-16.426 148.835 67.09 245.009 215.733 245.009 378.677 0.002 229.222-186.487 415.711-415.711 415.711z" p-id="12527" fill="#dbdbdb"></path><path d="M565.242 493.987c0 29.244-23.714 52.947-52.958 52.947s-52.938-23.703-52.938-52.947V117.4c0-29.242 23.694-52.947 52.938-52.947 29.244 0 52.958 23.705 52.958 52.947v376.587z" p-id="12528" fill="#dbdbdb"></path></svg>