<?xml version="1.0" standalone="no"?><!DOCTYPE svg PUBLIC "-//W3C//DTD SVG 1.1//EN" "http://www.w3.org/Graphics/SVG/1.1/DTD/svg11.dtd"><svg t="1588607429064" class="icon" viewBox="0 0 1170 1024" version="1.1" xmlns="http://www.w3.org/2000/svg" p-id="3876" xmlns:xlink="http://www.w3.org/1999/xlink" width="228.515625" height="200"><defs><style type="text/css"></style></defs><path d="M0 73.142857v877.714286a73.142857 73.142857 0 0 0 73.142857 73.142857h1024a73.142857 73.142857 0 0 0 73.142857-73.142857V73.142857a73.142857 73.142857 0 0 0-73.142857-73.142857H73.142857a73.142857 73.142857 0 0 0-73.142857 73.142857z m1104.969143 886.857143H65.316571V64h1039.652572v896zM453.632 512l-207.725714-203.629714a31.744 31.744 0 0 1 0-45.348572 32.987429 32.987429 0 0 1 46.299428 0l200.557715 196.754286a73.142857 73.142857 0 0 1 0 104.448l-177.737143 174.08a65.828571 65.828571 0 0 1-92.16 0L453.558857 512z m461.824 213.211429H587.629714a31.963429 31.963429 0 1 1 0-64h327.826286a31.963429 31.963429 0 1 1 0 64z" fill="#C5C5C5" p-id="3877"></path></svg>