<?xml version="1.0" standalone="no"?><!DOCTYPE svg PUBLIC "-//W3C//DTD SVG 1.1//EN" "http://www.w3.org/Graphics/SVG/1.1/DTD/svg11.dtd"><svg t="1631199576224" class="icon" viewBox="0 0 1024 1024" version="1.1" xmlns="http://www.w3.org/2000/svg" p-id="10819" xmlns:xlink="http://www.w3.org/1999/xlink" width="200" height="200"><defs><style type="text/css"></style></defs><path d="M810.325333 372.608a30.976 30.976 0 0 1 27.861334 33.706667c-0.213333 2.816-22.784 289.749333-35.84 410.112-7.978667 74.24-55.893333 119.338667-128 120.661333-54.869333 1.024-68.181333 1.578667-123.050667 1.578667l-31.146667-0.042667a30.848 30.848 0 0 1-30.378666-31.36 30.762667 30.762667 0 0 1 30.464-31.061333h15.488c19.456 0.085333 35.114667 0 49.962666-0.128l22.144-0.256c18.56-0.256 38.4-0.64 65.365334-1.109334 41.557333-0.810667 64-22.101333 68.608-65.109333 12.928-119.466667 35.498667-405.504 35.712-408.32a31.146667 31.146667 0 0 1 32.810666-28.672z m-596.650666 0a31.146667 31.146667 0 0 1 32.810666 28.672c0.213333 2.858667 22.613333 288.085333 35.669334 408.533333 4.522667 42.112 26.666667 63.872 65.792 64.725334a30.933333 30.933333 0 0 1 29.824 31.872 30.848 30.848 0 0 1-30.464 30.549333h-0.64c-69.290667-1.493333-117.205333-47.530667-125.056-120.192-13.184-121.429333-35.584-407.637333-35.84-410.538667a30.976 30.976 0 0 1 27.904-33.621333zM600.234667 85.333333c37.888 0 71.168 26.197333 80.981333 63.744a31.317333 31.317333 0 0 1-21.504 38.272 30.378667 30.378667 0 0 1-37.290667-22.101333 23.125333 23.125333 0 0 0-22.186666-17.450667H423.765333a23.125333 23.125333 0 0 0-22.186666 17.450667l-9.685334 50.048c-1.365333 6.741333-3.413333 13.056-5.930666 19.2h479.573333c16.810667 0 30.464 13.994667 30.464 31.232 0 17.28-13.653333 31.232-30.464 31.232H158.421333A30.805333 30.805333 0 0 1 128 265.728c0-17.237333 13.610667-31.189333 30.421333-31.189333h136.277334a38.570667 38.570667 0 0 0 37.461333-31.445334l10.154667-52.053333C352.554667 111.530667 385.877333 85.333333 423.765333 85.333333z" fill="#ffffff" p-id="10820"></path></svg>