<?xml version="1.0" standalone="no"?><!DOCTYPE svg PUBLIC "-//W3C//DTD SVG 1.1//EN" "http://www.w3.org/Graphics/SVG/1.1/DTD/svg11.dtd"><svg t="1614779146459" class="icon" viewBox="0 0 1024 1024" version="1.1" xmlns="http://www.w3.org/2000/svg" p-id="1439" xmlns:xlink="http://www.w3.org/1999/xlink" width="200" height="200"><defs><style type="text/css"></style></defs><path d="M923.136 267.605333v701.952H193.024v-909.653333h521.216z" fill="#7CCDFF" p-id="1440" data-spm-anchor-id="a313x.7781069.0.i3" class="selected"></path><path d="M912.896 253.952l2.56 671.914667c0 15.530667-12.458667 27.989333-27.989333 27.989333H237.909333c-15.530667 0-27.989333-12.458667-27.989333-27.989333V96.938667c0-15.530667 12.458667-27.989333 27.989333-27.989334l493.397334-1.024-38.912-39.936H239.274667c-36.352 0-65.706667 29.354667-65.706667 65.706667v835.584c0 36.352 29.354667 65.706667 65.706667 65.706667h646.826666c36.352 0 65.706667-29.354667 65.706667-65.706667V293.888l-38.912-39.936z" fill="#4191FB" p-id="1441"></path><path d="M692.394667 222.72c0 39.424 31.914667 71.338667 71.338666 71.338667h188.245334L692.394667 27.989333v194.730667z" fill="#C7E2FF" p-id="1442"></path><path d="M557.568 482.304H158.72c-50.346667 0-91.136-40.789333-91.136-91.136v-60.245333c0-50.346667 40.789333-91.136 91.136-91.136h398.848c50.346667 0 91.136 40.789333 91.136 91.136v60.245333c0 50.346667-40.789333 91.136-91.136 91.136z" fill="#4191FB" p-id="1443"></path><path d="M143.701333 287.573333h99.157334v33.450667h-58.88V348.16h50.346666v31.402667h-50.346666v63.658666H143.701333v-155.648zM266.069333 287.573333h40.106667v155.818667h-40.106667v-155.818667zM335.018667 287.573333h40.106666v117.418667h62.634667v38.4h-102.741333v-155.818667zM455.850667 287.573333h107.52V320.853333h-67.242667v24.746667h62.464v31.744h-62.464v30.72h69.290667v35.328h-109.397334v-155.818667h-0.170666z" fill="#FFFFFF" p-id="1444"></path><path d="M692.736 754.346667H456.874667c-12.458667 0-22.698667 10.24-22.698667 22.698666s10.24 22.698667 22.698667 22.698667h235.861333c12.458667 0 22.698667-10.24 22.698667-22.698667s-10.24-22.698667-22.698667-22.698666z" fill="#4191FB" p-id="1445"></path><path d="M788.309333 610.304H544.768l-67.413333-56.32c-2.730667-2.389333-6.314667-3.242667-9.728-2.901333H332.288c-7.168 0-12.970667 5.802667-12.970667 12.970666v302.08c0 7.168 5.802667 12.970667 12.970667 12.970667h456.021333c7.168 0 12.970667-5.802667 12.970667-12.970667V623.274667c0.170667-7.168-5.802667-12.970667-12.970667-12.970667z m-423.594666-13.994667h92.501333l67.925333 56.832c3.413333 2.901333 8.021333 3.584 11.946667 2.56h218.794667v177.834667H364.714667v-237.226667z" fill="#4191FB" p-id="1446"></path></svg>