<?xml version="1.0" standalone="no"?><!DOCTYPE svg PUBLIC "-//W3C//DTD SVG 1.1//EN" "http://www.w3.org/Graphics/SVG/1.1/DTD/svg11.dtd"><svg t="1640702964675" class="icon" viewBox="0 0 1024 1024" version="1.1" xmlns="http://www.w3.org/2000/svg" p-id="3334" xmlns:xlink="http://www.w3.org/1999/xlink" width="200" height="200"><defs><style type="text/css"></style></defs><path d="M268 728q30.016 36 30.016 82.016 0 54.016-36.992 91.008t-90.016 36.992T80 901.024t-38.016-90.016T80 720t90.016-38.016q16 0 24 2.016l130.016-228-74.016-42.016 174.016-48 48 174.016-74.016-42.016-130.016 230.016z m586.016-45.984q-42.016 0-75.008 24t-44.992 62.016h-264v-86.016l-128 128 128 128v-84h264q12 38.016 44.992 60.992t75.008 23.008q52 0 90.016-36.992t38.016-90.016-38.016-91.008-90.016-38.016zM512 342.016q16 0 22.016-2.016l132 228-74.016 42.016 174.016 48 48-174.016-74.016 42.016L608 296q32-36 32-82.016 0-54.016-36.992-91.008T512 85.984t-91.008 36.992T384 212.992 420.992 304 512 342.016z" p-id="3335" fill="#e6e6e6"></path></svg>