<svg t="1731048022644" class="icon" viewBox="0 0 1024 1024" version="1.1" xmlns="http://www.w3.org/2000/svg" p-id="5088" width="200" height="200"><path d="M924.672 625.664l-65.536-55.808c3.072-18.944 4.608-38.4 4.608-57.856s-1.536-38.912-4.608-57.856l65.536-55.808c10.24-8.704 13.824-22.528 9.216-35.328l-1.024-2.56c-17.92-50.688-45.056-96.768-79.872-137.728l-2.048-2.048c-8.704-10.24-22.528-13.824-35.328-9.728l-81.408 28.672c-30.208-24.576-63.488-44.032-99.84-57.856L620.032 97.28c-2.56-13.312-12.8-23.552-25.6-25.6l-2.56-0.512c-52.224-9.216-107.008-9.216-159.232 0l-3.072 0.512c-13.312 2.56-23.552 12.8-25.6 25.6l-15.872 85.504c-35.84 13.824-69.12 32.768-98.816 57.344l-81.92-29.184c-12.288-4.608-26.624-0.512-35.328 9.728l-2.048 2.048c-34.816 40.96-61.44 87.552-79.872 137.728l-1.024 2.56c-4.608 12.288-1.024 26.624 9.216 35.328l66.048 56.832c-3.072 18.944-4.608 37.888-4.608 57.344 0 18.944 1.536 38.4 4.608 57.344l-66.048 56.832c-10.24 8.704-13.824 22.528-9.216 35.328l1.024 2.56c17.92 50.176 45.056 96.768 79.872 137.728l2.048 2.048c8.704 10.24 22.528 13.824 35.328 9.728l81.92-29.184c29.696 24.576 62.976 44.032 98.816 57.344l15.872 85.504c2.56 13.312 12.8 23.552 25.6 25.6l2.56 0.512c26.112 4.608 52.736 7.168 79.36 7.168 26.624 0 53.248-2.56 79.36-7.168l2.56-0.512c13.312-2.56 23.552-12.8 25.6-25.6l15.872-84.992c36.352-13.824 69.632-32.768 99.84-57.344l81.408 28.672c12.288 4.608 26.624 0.512 35.328-9.728l2.048-2.048c34.816-40.96 61.44-87.552 79.872-137.728l1.024-2.56c4.096-13.312 0.512-27.648-9.728-36.352zM788.48 465.92c2.56 14.848 3.584 30.72 3.584 46.08s-1.536 31.232-3.584 46.08l-6.656 39.936 74.752 64c-11.264 26.112-25.6 50.688-42.496 73.728l-92.672-32.768-31.232 25.6c-24.064 19.456-50.688 34.816-79.36 45.568l-37.888 14.336-17.92 96.768c-28.16 3.072-56.832 3.072-84.992 0l-17.92-97.28-37.888-14.336c-28.672-10.752-54.784-26.112-78.848-45.568l-31.232-26.112-93.184 33.28c-16.896-23.04-31.232-47.616-42.496-73.728l75.264-64.512-6.656-39.936c-2.56-14.848-3.584-30.208-3.584-45.568s1.024-30.72 3.584-45.568l6.656-39.936-76.288-64c11.264-26.112 25.6-50.688 42.496-73.728l93.184 33.28 31.232-26.112c23.552-19.456 50.176-34.816 78.848-45.568l37.888-14.336 17.92-97.28c28.16-3.072 56.832-3.072 84.992 0l17.92 96.768 37.888 14.336c28.672 10.752 55.296 26.112 79.36 45.568l31.232 25.6 92.672-32.768c16.896 23.04 31.232 47.616 42.496 73.728l-74.752 64L788.48 465.92z" p-id="5089" fill="#c5c5c5"></path><path d="M353.28 363.008h79.36v297.984H353.28V363.008zM484.352 363.008h106.496c47.616 0 70.656 7.68 90.624 23.04 19.968 15.36 35.328 39.424 35.328 71.68s-14.848 56.832-34.816 73.728c-19.456 16.896-40.448 25.088-78.336 25.088h-39.936V660.48H490.496l-6.144-297.472z m79.36 53.76v86.528h27.136c15.872 0 38.4-3.584 46.08-10.24 8.192-7.168 12.288-17.408 12.288-31.232 0-14.848-3.584-26.112-11.776-33.792-8.192-7.68-30.72-11.264-46.08-11.264h-27.648z" p-id="5090" fill="#c5c5c5"></path></svg>