<?xml version="1.0" standalone="no"?><!DOCTYPE svg PUBLIC "-//W3C//DTD SVG 1.1//EN" "http://www.w3.org/Graphics/SVG/1.1/DTD/svg11.dtd"><svg t="1671964506277" class="icon" viewBox="0 0 1024 1024" version="1.1" xmlns="http://www.w3.org/2000/svg" p-id="11460" data-darkreader-inline-fill="" xmlns:xlink="http://www.w3.org/1999/xlink" width="120" height="120"><path d="M120.3712 668.8768l342.016 128.2048c29.8496 11.1616 49.6128 39.68 49.664 71.5264a36.9664 36.9664 0 0 1-49.7664 34.7648l-377.856-138.6496a51.2 51.2 0 0 1-29.952-65.8944c6.144-16.384 28.1088-26.368 65.8944-29.952zM768 409.6a51.2 51.2 0 0 1 51.2 51.2v153.6h76.8a51.2 51.2 0 0 1 40.96 81.92l-128 170.6496a51.2 51.2 0 0 1-81.92 0L599.04 696.32a51.2 51.2 0 0 1 40.96-81.92H716.8V460.8a51.2 51.2 0 0 1 51.2-51.2zM114.688 462.2848l5.6832 1.792 342.016 128.2048c29.8496 11.1616 49.6128 39.68 49.664 71.5776a36.9664 36.9664 0 0 1-49.7664 34.7136l-377.856-138.6496a51.2 51.2 0 0 1 30.208-97.6384z m409.6-358.4l5.6832 1.7408 389.6832 146.2784a51.2 51.2 0 0 1 30.6176 31.8464l1.024 3.072a35.072 35.072 0 0 1-18.8416 43.008c-13.824 6.2464-27.6992 9.3696-41.6256 9.3696-23.0912 0-61.4912-10.6496-115.0976-32L512 208.3328l-263.7312 98.816L478.72 393.6768a51.2 51.2 0 0 1 33.28 47.9232v17.4592a36.9664 36.9664 0 0 1-49.7664 34.7136L80.64 353.536l-5.12-2.7648-3.072-2.048-1.9456-1.4848-5.2736-4.8128-2.816-3.2256-3.0208-4.1984-2.7136-4.7616-3.072-7.5264-1.1264-4.0448-0.9216-5.4784L51.2 306.0224l0.4608-5.7344 0.8192-4.608 0.768-2.816 1.8432-5.1712 1.2288-2.816 1.9968-3.6864 3.072-4.608 3.7888-4.5568 4.096-3.8912 4.7104-3.584 3.072-1.8432 5.632-2.7648 411.3408-154.3168 7.0656-2.048a51.2 51.2 0 0 1 23.2448 0.3072z" fill="#C5C5C5" p-id="11461" data-darkreader-inline-fill="" style="--darkreader-inline-fill:#434545;"></path></svg>