<?xml version="1.0" standalone="no"?><!DOCTYPE svg PUBLIC "-//W3C//DTD SVG 1.1//EN" "http://www.w3.org/Graphics/SVG/1.1/DTD/svg11.dtd"><svg t="1588752312821" class="icon" viewBox="0 0 1024 1024" version="1.1" xmlns="http://www.w3.org/2000/svg" p-id="7309" xmlns:xlink="http://www.w3.org/1999/xlink" width="200" height="200"><defs><style type="text/css"></style></defs><path d="M832.256 128.064c35.328 0 64 28.736 64 64v639.68a64 64 0 0 1-64 64h-640c-35.264 0-64-28.672-64-64V192.064c0-35.264 28.736-64 64-64h640m0-64h-640c-70.4 0-128 57.6-128 128v639.68c0 70.4 57.6 128 128 128h640c70.4 0 128-57.6 128-128V192.064c0-70.4-57.6-128-128-128z" p-id="7310"></path><path d="M287.552 670.912m-96 0a96 96 0 1 0 192 0 96 96 0 1 0-192 0Z" p-id="7311"></path><path d="M416.64 349.504m-96 0a96 96 0 1 0 192 0 96 96 0 1 0-192 0Z" p-id="7312"></path><path d="M611.328 670.848m-96 0a96 96 0 1 0 192 0 96 96 0 1 0-192 0Z" p-id="7313"></path><path d="M735.744 349.504m-96 0a96 96 0 1 0 192 0 96 96 0 1 0-192 0Z" p-id="7314"></path><path d="M376.896 373.568l59.712 23.04-91.968 238.784-59.712-22.976zM693.76 389.248l58.624 25.856-103.168 234.24-58.624-25.856z" p-id="7315"></path><path d="M598.08 595.328l-55.936 31.232-124.736-223.488 55.936-31.232z" p-id="7316"></path></svg>