<?xml version="1.0" standalone="no"?><!DOCTYPE svg PUBLIC "-//W3C//DTD SVG 1.1//EN" "http://www.w3.org/Graphics/SVG/1.1/DTD/svg11.dtd"><svg t="1614784417167" class="icon" viewBox="0 0 1024 1024" version="1.1" xmlns="http://www.w3.org/2000/svg" p-id="6029" data-spm-anchor-id="a313x.7781069.0.i11" xmlns:xlink="http://www.w3.org/1999/xlink" width="200" height="200"><defs><style type="text/css"></style></defs><path d="M575.63 612.3h-83.67V259.52h56.21c14.63 0 26.5 11.84 26.54 26.46l0.92 326.32z" fill="#1296db" p-id="6030" data-spm-anchor-id="a313x.7781069.0.i9" class=""></path><path d="M584.14 734.39H282.92c-15.4 0-27.92-12.53-27.92-27.92V497.22c0-3.87 3.13-7 7-7s7 3.13 7 7v209.24c0 7.68 6.25 13.92 13.92 13.92h301.22c3.87 0 7 3.13 7 7s-3.13 7.01-7 7.01z" p-id="6031" data-spm-anchor-id="a313x.7781069.0.i10" class="selected" fill="#ffffff"></path><path d="M524.42 708.57c-1.64 0-3.28-0.57-4.6-1.72L366 572.95c-2.2-1.92-2.98-5-1.96-7.73a7.011 7.011 0 0 1 6.56-4.55h97.15c3.87 0 7 3.13 7 7s-3.13 7-7 7h-78.44l135.11 117.62 135.11-117.62h-79.31c-3.87 0-7-3.13-7-7s3.13-7 7-7h98.02c2.92 0 5.53 1.81 6.56 4.55s0.24 5.82-1.96 7.73l-153.81 133.9a7.079 7.079 0 0 1-4.61 1.72z" p-id="6032" data-spm-anchor-id="a313x.7781069.0.i13" class="selected" fill="#ffffff"></path><path d="M581.09 571.13c-3.87 0-7-3.13-7-7V303.37c0-22.7-18.47-41.17-41.17-41.17h-17c-22.7 0-41.17 18.47-41.17 41.17v28.15c0 3.87-3.13 7-7 7s-7-3.13-7-7v-28.15c0-30.42 24.75-55.17 55.17-55.17h17c30.42 0 55.17 24.75 55.17 55.17v260.76c0 3.87-3.13 7-7 7zM467.75 433.52c-3.87 0-7-3.13-7-7v-52c0-3.87 3.13-7 7-7s7 3.13 7 7v52c0 3.87-3.13 7-7 7zM467.88 574.66c-3.63 0-6.7-2.81-6.97-6.49-0.1-1.34-0.15-2.69-0.15-4.04v-93.61c0-3.87 3.13-7 7-7s7 3.13 7 7v93.61c0 1 0.04 2.02 0.11 3.02a6.992 6.992 0 0 1-6.47 7.49c-0.18 0.02-0.35 0.02-0.52 0.02z" p-id="6033" data-spm-anchor-id="a313x.7781069.0.i12" class="selected" fill="#ffffff"></path><path d="M688.11 775.8c-44.6 0-80.89-36.29-80.89-80.89s36.29-80.89 80.89-80.89S769 650.31 769 694.91s-36.29 80.89-80.89 80.89z m0-147.78c-36.88 0-66.89 30.01-66.89 66.89s30.01 66.89 66.89 66.89c36.88 0 66.89-30.01 66.89-66.89s-30.01-66.89-66.89-66.89z" p-id="6034" data-spm-anchor-id="a313x.7781069.0.i14" class="selected" fill="#ffffff"></path><path d="M681 724.58c-1.46 0-2.93-0.46-4.19-1.39l-38.01-28.43a6.994 6.994 0 0 1-1.41-9.8c2.32-3.09 6.7-3.73 9.8-1.41l32.66 24.42 39.26-47.83c2.45-2.99 6.86-3.42 9.85-0.97 2.99 2.45 3.42 6.86 0.97 9.85l-43.5 53a7.036 7.036 0 0 1-5.43 2.56z" p-id="6035" data-spm-anchor-id="a313x.7781069.0.i15" class="selected" fill="#ffffff"></path><path d="M526.01 693.17l134.62-119.79h-271z" fill="#1296db" p-id="6036" data-spm-anchor-id="a313x.7781069.0.i8" class=""></path></svg>