<?xml version="1.0" standalone="no"?><!DOCTYPE svg PUBLIC "-//W3C//DTD SVG 1.1//EN" "http://www.w3.org/Graphics/SVG/1.1/DTD/svg11.dtd"><svg t="1671984552604" class="icon" viewBox="0 0 1024 1024" version="1.1" xmlns="http://www.w3.org/2000/svg" p-id="29202" data-darkreader-inline-fill="" xmlns:xlink="http://www.w3.org/1999/xlink" width="120" height="120"><path d="M609.38 739.69H547.5v-452.2h61.88c17.67 0 32-14.33 32-32s-14.33-32-32-32H515.5c-3.31 0-6.51 0.5-9.52 1.44-13.03 4.05-22.48 16.2-22.48 30.56v224.1h-66.12c-17.67 0-32 14.33-32 32s14.33 32 32 32h66.12v228.1c0 17.67 14.33 32 32 32h93.88c17.67 0 32-14.33 32-32s-14.33-32-32-32z" fill="#c5c5c5" p-id="29203" data-darkreader-inline-fill="" style="--darkreader-inline-fill:#434545;"></path><path d="M297.38 705.22h-81.47c-83.81 0-152-68.19-152-152v-81.47c0-83.81 68.19-152 152-152h81.47c83.81 0 152 68.19 152 152v81.47c0 83.81-68.19 152-152 152z m-81.46-321.47c-48.52 0-88 39.48-88 88v81.47c0 48.52 39.48 88 88 88h81.47c48.52 0 88-39.48 88-88v-81.47c0-48.52-39.48-88-88-88h-81.47zM808.13 959.38h-78.75c-83.81 0-152-68.19-152-152v-78.75c0-83.81 68.19-152 152-152h78.75c83.81 0 152 68.19 152 152v78.75c0 83.81-68.19 152-152 152z m-78.75-318.75c-48.52 0-88 39.48-88 88v78.75c0 48.52 39.48 88 88 88h78.75c48.52 0 88-39.48 88-88v-78.75c0-48.52-39.48-88-88-88h-78.75zM808.13 446.86h-78.75c-83.81 0-152-68.19-152-152v-78.75c0-83.81 68.19-152 152-152h78.75c83.81 0 152 68.19 152 152v78.75c0 83.82-68.19 152-152 152z m-78.75-318.75c-48.52 0-88 39.48-88 88v78.75c0 48.52 39.48 88 88 88h78.75c48.52 0 88-39.48 88-88v-78.75c0-48.52-39.48-88-88-88h-78.75z" fill="#c5c5c5" p-id="29204" data-darkreader-inline-fill="" style="--darkreader-inline-fill:#434545;"></path></svg>