<?xml version="1.0" standalone="no"?><!DOCTYPE svg PUBLIC "-//W3C//DTD SVG 1.1//EN" "http://www.w3.org/Graphics/SVG/1.1/DTD/svg11.dtd"><svg t="1617021598101" class="icon" viewBox="0 0 1024 1024" version="1.1" xmlns="http://www.w3.org/2000/svg" p-id="8956" data-spm-anchor-id="a313x.7781069.0.i20" xmlns:xlink="http://www.w3.org/1999/xlink" width="200" height="200"><defs><style type="text/css"></style></defs><path d="M213.796 357.857c-44.449 0-80.61-36.162-80.61-80.61v-67.883c0-44.449 36.162-80.61 80.61-80.61h596.406c44.448 0 80.609 36.162 80.609 80.611v67.882c0 44.449-36.161 80.61-80.609 80.61H213.796z m596.406-189.104H213.796c-22.393 0-40.61 18.218-40.61 40.61v67.883c0 22.393 18.218 40.61 40.61 40.61h596.406c22.393 0 40.609-18.218 40.609-40.61v-67.882c0.001-22.393-18.216-40.611-40.609-40.611z" fill="#ffffff" p-id="8957" data-spm-anchor-id="a313x.7781069.0.i8" class="selected"></path><path d="M296.227 244.517m-31.517 0a31.517 31.517 0 1 0 63.034 0 31.517 31.517 0 1 0-63.034 0Z" fill="#ffffff" p-id="8958" data-spm-anchor-id="a313x.7781069.0.i9" class="selected"></path><path d="M296.227 509.081m-31.517 0a31.517 31.517 0 1 0 63.034 0 31.517 31.517 0 1 0-63.034 0Z" fill="#ffffff" p-id="8959" data-spm-anchor-id="a313x.7781069.0.i11" class="selected"></path><path d="M296.227 781.86m-31.517 0a31.517 31.517 0 1 0 63.034 0 31.517 31.517 0 1 0-63.034 0Z" fill="#ffffff" p-id="8960" data-spm-anchor-id="a313x.7781069.0.i13" class="selected"></path><path d="M428.967 623.025h-215.17c-44.449 0-80.61-36.161-80.61-80.609v-67.883c0-44.448 36.162-80.61 80.61-80.61l596.406-0.001c44.448 0 80.609 36.162 80.609 80.61v67.884c0 11.046-8.954 20-20 20s-20-8.954-20-20v-67.884c0-22.393-18.218-40.61-40.609-40.61l-596.406 0.001c-22.393 0-40.61 18.217-40.61 40.61v67.883c0 22.392 18.218 40.609 40.61 40.609h215.17c11.046 0 20 8.954 20 20s-8.954 20-20 20zM342.597 895.2h-128.8c-21.531 0.001-41.774-8.384-57-23.609s-23.611-35.469-23.611-57v-67.883c0-44.449 36.162-80.611 80.61-80.611h128.8c11.046 0 20 8.954 20 20s-8.954 20-20 20h-128.8c-22.393 0-40.61 18.218-40.61 40.611v67.883c0 10.847 4.224 21.045 11.895 28.716 7.67 7.67 17.868 11.894 28.715 11.894h128.801c11.046 0 20 8.954 20 20s-8.954 19.999-20 19.999z" fill="#ffffff" p-id="8961" data-spm-anchor-id="a313x.7781069.0.i10" class="selected"></path><path d="M467.523 892.076c-3.163 0-6.33-0.136-9.412-0.403-26.97-2.316-51.979-14.593-70.403-34.568-18.536-20.097-28.744-46.23-28.744-73.586 0-62.03 52.266-112.087 115.153-108.358 11.026 0.655 19.433 10.126 18.778 21.151-0.656 11.026-10.112 19.441-21.152 18.778a71.598 71.598 0 0 0-4.22-0.127c-37.803 0-68.559 30.754-68.559 68.556 0 35.286 27.491 65.289 62.587 68.303 1.955 0.17 3.958 0.255 5.972 0.255 11.046 0 20 8.954 20 20s-8.954 19.999-20 19.999z" p-id="8962" data-spm-anchor-id="a313x.7781069.0.i14" class="" fill="#e6e6e6"></path><path d="M472.87 713.06c-10.338 0-19.098-7.96-19.917-18.441a108.05 108.05 0 0 1-0.325-8.4c0-58.654 47.717-106.373 106.369-106.373 1.561 0 3.148-0.01 4.755-0.02 15.93-0.103 35.746-0.219 51.774 8.978 9.58 5.497 12.892 17.72 7.395 27.301-5.497 9.58-17.72 12.891-27.301 7.395-6.668-3.825-19.921-3.742-31.624-3.674-1.689 0.011-3.358 0.021-4.999 0.021-36.596 0-66.369 29.774-66.369 66.373 0 1.779 0.068 3.557 0.203 5.281 0.861 11.013-7.368 20.638-18.379 21.499-0.532 0.039-1.059 0.06-1.582 0.06z" p-id="8963" data-spm-anchor-id="a313x.7781069.0.i12" class="" fill="#e6e6e6"></path><path d="M831.146 655.309c-0.433 0-0.862-0.015-1.291-0.044-10.362-0.703-18.384-9.105-18.657-19.543-1.293-52.442-43.079-93.498-95.13-93.498-34.358 0-77.636 10.73-88.689 61.849-1.448 6.701-4.371 11.005-7.541 13.769-3.669 4.346-9.157 7.106-15.29 7.106-11.046 0-20-8.954-20-20 0-8.148 2.399-13.488 5.627-16.986 7.411-26.595 22.451-48.242 43.825-62.965 21.938-15.111 49.55-22.772 82.068-22.772 35.689 0 69.306 13.761 94.657 38.747 22.652 22.327 36.552 51.464 39.777 82.965a20.444 20.444 0 0 1 1.455 7.616 20.03 20.03 0 0 1-0.625 4.979c-0.1 0.612-0.202 1.232-0.288 1.704-2.071 11.398-11.35 17.072-19.898 17.073z" p-id="8964" data-spm-anchor-id="a313x.7781069.0.i17" class="" fill="#e6e6e6"></path><path d="M825.577 892.81c-11.046 0-20-8.954-20-20s8.954-20 20-20c1.361 0 2.759-0.029 4.152-0.088 52.98-2.19 94.473-45.473 94.473-98.537 0-52.651-41.149-95.918-93.681-98.5-11.068-0.568-19.547-9.52-19.345-20.381 0.144-7.726 5.813-19.344 20.845-19.685 0.691-0.016 1.51-0.028 2.138-0.037 2.481-0.106 4.9 0.212 7.046 0.849 69.622 7.764 122.997 66.675 122.997 137.754 0 36.013-13.746 70.137-38.705 96.086-24.886 25.873-58.306 40.937-94.104 42.416-1.939 0.082-3.899 0.123-5.816 0.123z" p-id="8965" data-spm-anchor-id="a313x.7781069.0.i16" class="" fill="#e6e6e6"></path><path d="M842.083 891.806H466.427c-11.046 0-20-8.954-20-20s8.954-20 20-20h375.656c11.046 0 20 8.954 20 20s-8.954 20-20 20z" p-id="8966" data-spm-anchor-id="a313x.7781069.0.i15" class="" fill="#e6e6e6"></path></svg>