<?xml version="1.0" standalone="no"?><!DOCTYPE svg PUBLIC "-//W3C//DTD SVG 1.1//EN" "http://www.w3.org/Graphics/SVG/1.1/DTD/svg11.dtd"><svg t="1634475136453" class="icon" viewBox="0 0 1024 1024" version="1.1" xmlns="http://www.w3.org/2000/svg" p-id="5150" xmlns:xlink="http://www.w3.org/1999/xlink" width="200" height="200"><defs><style type="text/css"></style></defs><path d="M343.637333 435.925333A189.738667 189.738667 0 0 0 341.333333 465.493333c0 96.938667 72.96 174.762667 161.450667 175.36 89.258667-0.64 162.005333-78.293333 162.005333-175.36 0-14.506667-1.621333-28.629333-4.736-42.24 34.133333 19.456 64 45.525333 87.978667 76.373334-15.786667 126.890667-118.528 225.664-245.248 226.56-119.125333-0.853333-217.6-89.258667-241.322667-206.165334a300.288 300.288 0 0 1 82.176-84.053333z m609.536 6.229334l-62.933333 57.642666C766.378667 364.672 659.968 298.666667 512 298.666667c-144.341333 0-255.146667 69.589333-378.112 200.362666l-62.165333-58.453333C209.322667 294.229333 338.090667 213.333333 512 213.333333c177.322667 0 302.72 77.738667 441.173333 228.821334z" p-id="5151" fill="#ffffff"></path></svg>