<svg xmlns="http://www.w3.org/2000/svg" viewBox="0 0 32 32"><defs><style>.cls-1{fill:#dcb67a;}.cls-2{fill:#252526;}.cls-3{fill:#57aa54;}</style></defs><title>folder.src.close</title><g id="Bases"><path class="cls-1" d="M30,5V25a1,1,0,0,1-1,1H5a1,1,0,0,1-1-1V9A1,1,0,0,1,5,8h7l2-4H29A1,1,0,0,1,30,5ZM28,8V6H16L15,8Z"/></g><g id="Overlays"><g id="_编组_" data-name="&lt;编组&gt;"><path id="_复合路径_" data-name="&lt;复合路径&gt;" class="cls-2" d="M20,32a3.92,3.92,0,0,1-4-4V18a3.92,3.92,0,0,1,4-4h8.75L32,18.12V28a3.92,3.92,0,0,1-4,4Z"/><path id="_复合路径_2" data-name="&lt;复合路径&gt;" class="cls-3" d="M26.63,16h-6.7A1.91,1.91,0,0,0,18,18V28a1.91,1.91,0,0,0,1.93,2h8A2,2,0,0,0,30,28V20.27ZM28,24h0v4H20V18h6v2h2Z"/><rect id="_路径_" data-name="&lt;路径&gt;" class="cls-3" x="21.99" y="19.99" width="3.99" height="2.09"/><rect id="_路径_2" data-name="&lt;路径&gt;" class="cls-3" x="22" y="24" width="4" height="2"/></g></g></svg>
