<?xml version="1.0" standalone="no"?><!DOCTYPE svg PUBLIC "-//W3C//DTD SVG 1.1//EN" "http://www.w3.org/Graphics/SVG/1.1/DTD/svg11.dtd"><svg t="1671088275809" class="icon" viewBox="0 0 1024 1024" version="1.1" xmlns="http://www.w3.org/2000/svg" p-id="11485" xmlns:xlink="http://www.w3.org/1999/xlink" width="200" height="200"><path d="M0 0h1024v1024H0z" fill="#ffffff" opacity=".01" p-id="11486"></path><path d="M409.6 68.266667a136.533333 136.533333 0 0 0-136.533333 136.533333v34.133333H238.933333a170.666667 170.666667 0 0 0-170.666666 170.666667v375.466667a170.666667 170.666667 0 0 0 170.666666 170.666666h546.133334a170.666667 170.666667 0 0 0 170.666666-170.666666V409.6a170.666667 170.666667 0 0 0-170.666666-170.666667h-34.133334V204.8a136.533333 136.533333 0 0 0-136.533333-136.533333h-204.8z m477.866667 477.866666h-204.8a102.4 102.4 0 0 0-102.4-102.4h-136.533334a102.4 102.4 0 0 0-102.4 102.4H136.533333v-136.533333a102.4 102.4 0 0 1 102.4-102.4h546.133334a102.4 102.4 0 0 1 102.4 102.4v136.533333z m-204.8 68.266667h204.8v170.666667a102.4 102.4 0 0 1-102.4 102.4H238.933333a102.4 102.4 0 0 1-102.4-102.4v-170.666667h204.8a102.4 102.4 0 0 0 102.4 102.4h136.533334a102.4 102.4 0 0 0 102.4-102.4z m-68.266667-34.133333v34.133333a34.133333 34.133333 0 0 1-34.133333 34.133333h-136.533334a34.133333 34.133333 0 0 1-34.133333-34.133333v-68.266667a34.133333 34.133333 0 0 1 34.133333-34.133333h136.533334a34.133333 34.133333 0 0 1 34.133333 34.133333v34.133334z m68.266667-341.333334H341.333333V204.8a68.266667 68.266667 0 0 1 68.266667-68.266667h204.8a68.266667 68.266667 0 0 1 68.266667 68.266667v34.133333z" fill="#C5C5C5" p-id="11487"></path></svg>