<?xml version="1.0" standalone="no"?><!DOCTYPE svg PUBLIC "-//W3C//DTD SVG 1.1//EN" "http://www.w3.org/Graphics/SVG/1.1/DTD/svg11.dtd"><svg t="1617021779982" class="icon" viewBox="0 0 1024 1024" version="1.1" xmlns="http://www.w3.org/2000/svg" p-id="13735" data-spm-anchor-id="a313x.7781069.0.i25" xmlns:xlink="http://www.w3.org/1999/xlink" width="200" height="200"><defs><style type="text/css"></style></defs><path d="M276.6 685.1h-107c-39.8 0-72.2 32.4-72.2 72.2V855c0 39.8 32.4 72.2 72.2 72.2h107c39.8 0 72.2-32.4 72.2-72.2v-97.7c0-39.8-32.4-72.2-72.2-72.2z m14.4 170c0 7.8-6.6 14.4-14.4 14.4h-107c-7.8 0-14.4-6.6-14.4-14.4v-97.7c0-7.8 6.6-14.4 14.4-14.4h107c7.8 0 14.4 6.6 14.4 14.4v97.7zM570 685.1H463c-39.8 0-72.2 32.4-72.2 72.2V855c0 39.8 32.4 72.2 72.2 72.2h107c39.8 0 72.2-32.4 72.2-72.2v-97.7c0-39.8-32.4-72.2-72.2-72.2z m14.4 170c0 7.8-6.6 14.4-14.4 14.4H463c-7.8 0-14.4-6.6-14.4-14.4v-97.7c0-7.8 6.6-14.4 14.4-14.4h107c7.8 0 14.4 6.6 14.4 14.4v97.7zM855 685.1H748c-39.8 0-72.2 32.4-72.2 72.2V855c0 39.8 32.4 72.2 72.2 72.2h107c39.8 0 72.2-32.4 72.2-72.2v-97.7c0-39.8-32.4-72.2-72.2-72.2z m14.4 170c0 7.8-6.6 14.4-14.4 14.4H748c-7.8 0-14.4-6.6-14.4-14.4v-97.7c0-7.8 6.6-14.4 14.4-14.4h107c7.8 0 14.4 6.6 14.4 14.4v97.7zM214.8 635.1c16 0 28.9-12.9 28.9-28.9v-53h239.9v49.4c0 16 12.9 28.9 28.9 28.9 16 0 28.9-12.9 28.9-28.9v-49.4h238.5v53c0 16 12.9 28.9 28.9 28.9 16 0 28.9-12.9 28.9-28.9v-81.9c0-16-12.9-28.9-28.9-28.9H541.3v-63.8h99.3c39.8 0 72.2-32.4 72.2-72.2V169.6c0-39.8-32.4-72.2-72.2-72.2H384.2c-39.8 0-72.2 32.4-72.2 72.2v189.8c0 39.8 32.4 72.2 72.2 72.2h99.3v63.8H214.8c-16 0-28.9 12.9-28.9 28.9v81.9c0 15.9 12.9 28.9 28.9 28.9z m155-275.7V169.6c0-7.8 6.6-14.4 14.4-14.4h256.4c7.8 0 14.4 6.6 14.4 14.4v189.8c0 7.8-6.6 14.4-14.4 14.4H384.2c-7.8 0-14.4-6.6-14.4-14.4z" p-id="13736" data-spm-anchor-id="a313x.7781069.0.i23" class="selected" fill="#ffffff"></path></svg>