<?xml version="1.0" standalone="no"?><!DOCTYPE svg PUBLIC "-//W3C//DTD SVG 1.1//EN" "http://www.w3.org/Graphics/SVG/1.1/DTD/svg11.dtd"><svg t="1671092287106" class="icon" viewBox="0 0 1024 1024" version="1.1" xmlns="http://www.w3.org/2000/svg" p-id="1872" data-darkreader-inline-fill="" xmlns:xlink="http://www.w3.org/1999/xlink" width="200" height="200"><path d="M785.51004562 785.51004562H238.43817245V238.43817245h547.07187317m218.82875024 218.82874902V347.85254756h-109.41437511V238.43817245c0-60.7397357-49.19245392-109.41437511-109.41437513-109.41437513h-109.41437391V19.60942341h-109.41437512v109.41437391h-109.41437512V19.60942341H347.85254756v109.41437391H238.43817245c-60.7397357 0-109.41437511 48.67463941-109.41437513 109.41437513V347.85254756H19.60942341v109.41437391h109.41437391v109.41437512H19.60942341v109.41437512h109.41437391v109.41437391a109.41437511 109.41437511 0 0 0 109.41437513 109.41437513H347.85254756v109.41437511h109.41437391v-109.41437511h109.41437512v109.41437511h109.41437512v-109.41437511h109.41437391a109.41437511 109.41437511 0 0 0 109.41437513-109.41437513v-109.41437391h109.41437511v-109.41437512h-109.41437511v-109.41437512m-328.24312416 109.41437512h-109.41437512v-109.41437512h109.41437512m109.41437512-109.41437391H347.85254756v328.24312415h328.24312415z" fill="#ff7043" p-id="1873" data-darkreader-inline-fill="" style="--darkreader-inline-fill:#000000;"></path></svg>