<?xml version="1.0" standalone="no"?>
<!DOCTYPE svg PUBLIC "-//W3C//DTD SVG 1.1//EN" "http://www.w3.org/Graphics/SVG/1.1/DTD/svg11.dtd">
<svg t="1588600619702" class="icon" viewBox="0 0 1024 1024" version="1.1"
    xmlns="http://www.w3.org/2000/svg" p-id="1885" xmlns:xlink="http://www.w3.org/1999/xlink"
    width="200" height="200">
    <defs>
        <style type="text/css"></style>
    </defs>
    <path d="M924 100v824h-824v-824h824m64-64H36v952h952V36z" p-id="1886"></path>
    <path
        d="M188 164c13.6 0 24 10.4 24 24s-10.4 24-24 24-24-10.4-24-24 10.4-24 24-24m0-24c-26.4 0-48 21.6-48 48s21.6 48 48 48 48-21.6 48-48-21.6-48-48-48zM188 812c13.6 0 24 10.4 24 24s-10.4 24-24 24-24-10.4-24-24 10.4-24 24-24m0-24c-26.4 0-48 21.6-48 48s21.6 48 48 48 48-21.6 48-48-21.6-48-48-48zM836 164c13.6 0 24 10.4 24 24s-10.4 24-24 24-24-10.4-24-24 10.4-24 24-24m0-24c-26.4 0-48 21.6-48 48s21.6 48 48 48 48-21.6 48-48-21.6-48-48-48zM836 812c13.6 0 24 10.4 24 24s-10.4 24-24 24-24-10.4-24-24 10.4-24 24-24m0-24c-26.4 0-48 21.6-48 48s21.6 48 48 48 48-21.6 48-48-21.6-48-48-48zM744 280v464H280V280h464m20.8-32H259.2c-6.4 0-11.2 4.8-11.2 11.2v506.4c0 6.4 4.8 11.2 11.2 11.2h506.4c6.4 0 11.2-4.8 11.2-11.2V259.2c-0.8-6.4-5.6-11.2-12-11.2z"
        p-id="1887"></path>
</svg>