<?xml version="1.0" standalone="no"?><!DOCTYPE svg PUBLIC "-//W3C//DTD SVG 1.1//EN" "http://www.w3.org/Graphics/SVG/1.1/DTD/svg11.dtd"><svg t="1631199366787" class="icon" viewBox="0 0 1024 1024" version="1.1" xmlns="http://www.w3.org/2000/svg" p-id="7526" xmlns:xlink="http://www.w3.org/1999/xlink" width="200" height="200"><defs><style type="text/css"></style></defs><path d="M697.6 540.032H544v-153.6c0-2.432-2.88-4.48-6.4-4.48h-51.2c-3.52 0-6.4 2.048-6.4 4.48v153.6H326.4c-2.432 0-4.416 2.816-4.416 6.4v51.2c0 3.52 2.048 6.4 4.48 6.4H480v153.6c0 2.368 2.88 4.352 6.4 4.352h51.2c3.52 0 6.4-1.984 6.4-4.416v-153.6h153.6c2.432 0 4.416-2.816 4.416-6.4v-51.2c0-3.52-1.984-6.4-4.48-6.4z m152.128-261.952L657.472 92.16l-1.28-1.088a68.032 68.032 0 0 0-44.928-17.024H217.984c-37.504 0-67.968 30.464-67.968 68.032V881.92c0 37.568 30.464 67.968 67.968 68.032h585.984c37.568 0 67.968-30.464 68.032-68.032V328.448c0-19.2-8.064-37.44-22.272-50.368z m-50.56 51.328L634.24 329.088V169.856l164.864 159.552z m-577.152 548.608V145.92H570.24v183.04c0 35.328 28.544 63.936 63.872 64l165.824 0.384v484.608H222.016z" p-id="7527"></path></svg>