<?xml version="1.0" standalone="no"?><!DOCTYPE svg PUBLIC "-//W3C//DTD SVG 1.1//EN" "http://www.w3.org/Graphics/SVG/1.1/DTD/svg11.dtd"><svg t="1588929637376" class="icon" viewBox="0 0 1024 1024" version="1.1" xmlns="http://www.w3.org/2000/svg" p-id="20434" xmlns:xlink="http://www.w3.org/1999/xlink" width="200" height="200"><defs><style type="text/css"></style></defs><path d="M833.6384 111.4112C833.6384 52.736 786.0224 5.12 727.3472 5.12S621.056 52.736 621.056 111.4112c0 53.248 39.2192 97.28 90.3168 104.96v82.8416c0 13.9264-6.0416 27.0336-16.6912 36.0448L314.9824 621.6704V216.4736c51.0976-7.7824 90.3168-51.712 90.3168-104.96C405.2992 52.736 357.6832 5.12 299.008 5.12S192.7168 52.736 192.7168 111.4112c0 53.248 39.2192 97.28 90.3168 104.96v591.1552c-51.0976 7.7824-90.3168 51.712-90.3168 104.96 0 58.6752 47.616 106.2912 106.2912 106.2912s106.2912-47.616 106.2912-106.2912c0-53.248-39.2192-97.28-90.3168-104.96V661.8112l399.2576-301.1584 0.6144-0.512c18.0224-15.1552 28.4672-37.2736 28.4672-60.928v-82.8416c51.0976-7.68 90.3168-51.712 90.3168-104.96z" p-id="20435" fill="#515151"></path></svg>