<?xml version="1.0" standalone="no"?><!DOCTYPE svg PUBLIC "-//W3C//DTD SVG 1.1//EN" "http://www.w3.org/Graphics/SVG/1.1/DTD/svg11.dtd"><svg t="1673280167348" class="icon" viewBox="0 0 1024 1024" version="1.1" xmlns="http://www.w3.org/2000/svg" p-id="8326" data-darkreader-inline-fill="" width="500" height="500" xmlns:xlink="http://www.w3.org/1999/xlink"><path d="M857.7 732.7l-1.8-20.4-1.1-11.2c-25.7-129-63.9-162.4-93.5-209.5l-1.8-2.1 0.1-12.7-0.2-13.7c-1.1-50-8-97.1-20.9-141.4-39.7-106.9-103.7-139.9-196.4-185.4-19.9-9.8-43.1-9.9-63.1-0.3l-7.9 4-7.9 4.2c-83.5 45.7-138.2 74.2-176.9 174.1l-2.9 11.1-2.9 12.4c-8.3 37.3-12.5 86.8-12.6 128.4v7.8l-1.9 1.5-3.2 2.7c-40.6 42.8-76.3 90.2-96.6 249.6l-0.1 2.6 0.2 2.7c2.1 21 25.3 34.6 45 24.5l150-65.6 4.6 1c46.2 9.4 103.1 14.3 150.2 14.7l15.7-0.1 15.8-0.4c31.7-1.1 73.2-4.3 104.4-9.6l5-0.9 156.1 61.1 2.7 1.3c20.8 8.7 43.8-7.4 41.9-30.4z m-182.2-91l-2.7-1.3c-5.5-2.2-11.6-2.9-17.5-1.8-42.8 8.1-96.2 12.1-139.7 11.8-48-0.4-105.9-6-152.7-16.5l-3-0.5-3-0.2c-5.1-0.1-10.1 1-14.6 3.3l-109.9 45 1.6-14.9c29-107.5 60.8-128.8 76.4-142.7l4.8-2.4c9.6-5.6 15.3-16 14.8-27.1-2-53.9 3.4-113.6 15.9-158.9 31-82.6 81.8-103.5 154.1-140.7l7.2-3.6 1.6-0.6c1.8-0.4 3.6-0.4 5.3 0.1l1.7 0.7 7.3 3.7c72.3 37.8 123.6 56.1 156.5 143 14.3 49.2 20.4 102.9 18.1 161.2-0.3 8.9 3.3 17.6 9.8 23.7l2.1 2.1 2.3 2.5c8.4 12.5 51.3 44.7 77.8 144.1l1.2 9.9-115.4-39.9z" fill="#1afa29" p-id="8327" data-darkreader-inline-fill="" style="--darkreader-inline-fill:#1ec649;"></path><path d="M510.5 322.9c-64.9 0-117.6 52.4-117.6 117.1s52.6 117.1 117.6 117.1c64.9 0 117.6-52.4 117.6-117.1s-52.7-117.1-117.6-117.1zM563.9 440c-0.1 29.5-24 53.3-53.5 53.2-29.5 0.1-53.4-23.8-53.4-53.2 0.1-29.5 24-53.3 53.5-53.2 29.5-0.1 53.4 23.8 53.4 53.2z" fill="#1afa29" p-id="8328" data-darkreader-inline-fill="" style="--darkreader-inline-fill:#1ec649;"></path><path d="M518.2 895.1c-16.8 0-43.8-14.6-61.7-29-30.5-24.5-49.1-56.5-53.9-92.8-2.3-17.5 10-33.6 27.5-35.9 17.5-2.3 33.6 10 35.9 27.5 2.4 18.4 11.5 34.6 27 48.2 9.7 8.5 19.4 13.8 25.3 16.4 5.7-2.5 14.8-7.4 24.1-15.5 15.5-13.5 25-30.4 28.1-50 2.8-17.5 19.2-29.4 36.6-26.6 17.5 2.8 29.4 19.2 26.6 36.6-7.4 46.7-34 76.4-55.1 93.1-20.3 16.3-45.8 28-60.4 28z m5.1-63.5z m-10.2 0z" fill="#1afa29" p-id="8329" data-darkreader-inline-fill="" style="--darkreader-inline-fill:#1ec649;"></path></svg>