<?xml version="1.0" standalone="no"?><!DOCTYPE svg PUBLIC "-//W3C//DTD SVG 1.1//EN" "http://www.w3.org/Graphics/SVG/1.1/DTD/svg11.dtd"><svg t="1631199505679" class="icon" viewBox="0 0 1024 1024" version="1.1" xmlns="http://www.w3.org/2000/svg" p-id="8508" xmlns:xlink="http://www.w3.org/1999/xlink" width="200" height="200"><defs><style type="text/css"></style></defs><path d="M385.962667 234.538667h479.573333c16.810667 0 30.464 13.952 30.464 31.146666 0 17.322667-13.653333 31.274667-30.464 31.274667H158.421333A30.805333 30.805333 0 0 1 128 265.728c0-17.237333 13.610667-31.189333 30.421333-31.189333h136.277334a38.570667 38.570667 0 0 0 37.461333-31.445334l10.154667-52.053333C352.554667 111.530667 385.877333 85.333333 423.765333 85.333333h176.469334c37.888 0 71.168 26.197333 80.981333 63.744a31.317333 31.317333 0 0 1-21.504 38.272 30.378667 30.378667 0 0 1-37.290667-22.101333 23.125333 23.125333 0 0 0-22.186666-17.450667H423.765333a23.125333 23.125333 0 0 0-22.186666 17.450667l-9.685334 50.048c-1.365333 6.741333-3.413333 13.056-5.930666 19.2z m-38.016 640c-39.125333-0.853333-61.269333-22.613333-65.792-64.725334-13.098667-120.448-35.456-405.674667-35.669334-408.533333a31.146667 31.146667 0 0 0-32.810666-28.672 30.976 30.976 0 0 0-27.861334 33.621333c0.213333 2.901333 22.613333 289.109333 35.797334 410.538667 7.850667 72.661333 55.765333 118.698667 125.056 120.192h0.64a30.848 30.848 0 0 0 30.464-30.549333 30.933333 30.933333 0 0 0-29.866667-31.872zM810.325333 372.608a31.146667 31.146667 0 0 0-32.810666 28.629333c-0.213333 2.858667-22.784 288.853333-35.712 408.362667-4.608 43.008-27.050667 64.298667-68.608 65.109333l-16.554667 0.298667c-52.778667 0.938667-77.354667 1.408-136.32 1.194667h-0.085333a30.762667 30.762667 0 0 0-30.421334 31.061333 30.848 30.848 0 0 0 30.293334 31.36l31.189333 0.042667c43.52 0 60.842667-0.341333 93.44-0.981334l29.568-0.597333c72.149333-1.322667 120.064-46.421333 128.042667-120.661333 13.056-120.32 35.626667-407.296 35.84-410.154667a31.018667 31.018667 0 0 0-27.861334-33.664z" fill="#200E32" p-id="8509"></path></svg>