<?xml version="1.0" standalone="no"?><!DOCTYPE svg PUBLIC "-//W3C//DTD SVG 1.1//EN" "http://www.w3.org/Graphics/SVG/1.1/DTD/svg11.dtd"><svg t="1606133692699" class="icon" viewBox="0 0 1024 1024" version="1.1" xmlns="http://www.w3.org/2000/svg" p-id="33223" xmlns:xlink="http://www.w3.org/1999/xlink" width="200" height="200"><defs><style type="text/css"></style></defs><path d="M454.45 475.17l-182.46-0.44c-1.99-0.01-3.25 2.14-2.26 3.87l236.48 207.38c0.99 1.73 3.49 1.74 4.49 0.02l238.69-206.1c1-1.72-60.35-3.88-62.35-3.89l-122.36-0.44M564.67 475.56V157.07c0-11.55-9.38-20.91-20.96-20.91h-38.24c-11.57 0-20.96 9.36-20.96 20.91v317.66" fill="#F7E946" p-id="33224"></path><path d="M444.43 494.71c-11.07 0-20.04-8.95-20.04-19.99v-48.41c0-11.04 8.97-19.99 20.04-19.99s20.04 8.95 20.04 19.99v48.41c0 11.04-8.97 19.99-20.04 19.99zM444.43 393.92c-11.07 0-20.04-8.95-20.04-19.99v-31.24c0-11.04 8.97-19.99 20.04-19.99s20.04 8.95 20.04 19.99v31.24c0 11.04-8.97 19.99-20.04 19.99z" p-id="33225"></path><path d="M574.69 495.55c-11.07 0-20.04-8.95-20.04-19.99V175.19c0-10.49-8.56-19.03-19.09-19.03h-52c-10.52 0-19.09 8.54-19.09 19.03v114.1c0 11.04-8.97 19.99-20.04 19.99s-20.04-8.95-20.04-19.99v-114.1c0-32.54 26.54-59.01 59.16-59.01h52c32.63 0 59.17 26.47 59.17 59.01v300.37c0.01 11.04-8.96 19.99-20.03 19.99z" p-id="33226"></path><path d="M508.46 707.26h-0.1a22.727 22.727 0 0 1-16.61-7.35l-237.76-208.5-1.66-2.9c-3.98-6.96-3.95-15.6 0.09-22.53 4.04-6.94 11.54-11.24 19.58-11.24l172.49 0.44c11.07 0.03 20.02 9 19.99 20.04-0.03 11.03-9 19.94-20.04 19.94h-0.05l-125.79-0.32 189.96 166.58 191.7-165.54-125.61-0.32c-11.07-0.03-20.02-9-19.99-20.04 0.03-11.03 9-19.94 20.04-19.94h0.05l172.46 0.44c8.11 0.04 15.59 4.4 19.59 11.37 4 6.98 3.96 15.62-0.09 22.57l-1.68 2.87-239.99 207.22a22.726 22.726 0 0 1-16.58 7.21zM644.76 905.89H197.05c-84.12 0-152.55-68.27-152.55-152.18V536.06c0-11.04 8.97-19.99 20.04-19.99s20.04 8.95 20.04 19.99V753.7c0 61.87 50.46 112.2 112.47 112.2h447.72c11.07 0 20.04 8.95 20.04 19.99s-8.98 20-20.05 20zM845.23 907.17c-74.59 0-135.27-60.53-135.27-134.94S770.64 637.3 845.23 637.3 980.5 697.83 980.5 772.24s-60.69 134.93-135.27 134.93z m0-229.89c-52.49 0-95.19 42.6-95.19 94.95 0 52.36 42.7 94.95 95.19 94.95 52.49 0 95.19-42.6 95.19-94.95-0.01-52.35-42.71-94.95-95.19-94.95z" p-id="33227"></path><path d="M835.38 813.6c-7.16 0-13.89-2.78-18.95-7.84l-25.46-25.39c-5.87-5.86-5.87-15.34 0-21.2 5.86-5.86 15.38-5.86 21.25 0l23.16 23.09 42.84-42.73c5.87-5.86 15.39-5.86 21.25 0 5.87 5.86 5.87 15.34 0 21.2l-45.15 45.03c-5.04 5.04-11.78 7.84-18.94 7.84z" p-id="33228"></path></svg>