<svg xmlns="http://www.w3.org/2000/svg" xmlns:xlink="http://www.w3.org/1999/xlink" viewBox="0 0 32 32"><defs><style>.cls-1{fill:none;}.cls-2{fill:#dcb67a;}.cls-3{clip-path:url(#clip-path);}.cls-4{fill:#252526;}.cls-5{fill:#0095d7;}</style><clipPath id="clip-path"><rect class="cls-1" x="14" y="12" width="18" height="20"/></clipPath></defs><title>folder.test.close</title><g id="Bases"><path class="cls-2" d="M30,5V25a1,1,0,0,1-1,1H5a1,1,0,0,1-1-1V9A1,1,0,0,1,5,8h7l2-4H29A1,1,0,0,1,30,5ZM28,8V6H16L15,8Z"/></g><g id="Overlays"><g id="Overlay_-_Test" data-name="Overlay - Test"><g class="cls-3"><polygon class="cls-4" points="16 12 16 18 18 18 18 19.47 14 26.47 14 27.61 16.93 32 29.07 32 32 27.61 32 26.47 28 19.47 28 18 30 18 30 12 16 12"/><path class="cls-5" d="M26,20V16h2V14H18v2h2v4l-4,7,2,3H28l2-3Zm-5.94,4,1.6-2.89.34-.5V16h2v4.61l.34.5L25.94,24Z"/></g></g></g></svg>