<?xml version="1.0" standalone="no"?><!DOCTYPE svg PUBLIC "-//W3C//DTD SVG 1.1//EN" "http://www.w3.org/Graphics/SVG/1.1/DTD/svg11.dtd"><svg t="1700394770615" class="icon" viewBox="0 0 1024 1024" version="1.1" xmlns="http://www.w3.org/2000/svg" p-id="1667" width="200" height="200" xmlns:xlink="http://www.w3.org/1999/xlink"><path d="M352 48c0-26.6-21.4-48-48-48s-48 21.4-48 48v80c-70.6 0-128 57.4-128 128H48c-26.6 0-48 21.4-48 48s21.4 48 48 48h80v112H48c-26.6 0-48 21.4-48 48s21.4 48 48 48h80v112H48c-26.6 0-48 21.4-48 48s21.4 48 48 48h80c0 70.6 57.4 128 128 128v80c0 26.6 21.4 48 48 48s48-21.4 48-48v-80h112v80c0 26.6 21.4 48 48 48s48-21.4 48-48v-80h112v80c0 26.6 21.4 48 48 48s48-21.4 48-48v-80c70.6 0 128-57.4 128-128h80c26.6 0 48-21.4 48-48s-21.4-48-48-48h-80v-112h80c26.6 0 48-21.4 48-48s-21.4-48-48-48h-80v-112h80c26.6 0 48-21.4 48-48s-21.4-48-48-48h-80c0-70.6-57.4-128-128-128V48c0-26.6-21.4-48-48-48s-48 21.4-48 48v80h-112V48c0-26.6-21.4-48-48-48s-48 21.4-48 48v80h-112V48z m-32 208h384c35.4 0 64 28.6 64 64v384c0 35.4-28.6 64-64 64H320c-35.4 0-64-28.6-64-64V320c0-35.4 28.6-64 64-64z m384 64H320v384h384V320z" p-id="1668" fill="#34D1B2"></path></svg>