<?xml version="1.0" standalone="no"?><!DOCTYPE svg PUBLIC "-//W3C//DTD SVG 1.1//EN" "http://www.w3.org/Graphics/SVG/1.1/DTD/svg11.dtd"><svg t="1671092340934" class="icon" viewBox="0 0 1024 1024" version="1.1" xmlns="http://www.w3.org/2000/svg" p-id="2485" data-darkreader-inline-fill="" xmlns:xlink="http://www.w3.org/1999/xlink" width="200" height="200"><path d="M220.72888889 220.72888889m145.63555556 0l291.2711111 0q145.63555555 0 145.63555556 145.63555556l0 291.2711111q0 145.63555555-145.63555556 145.63555556l-291.2711111 0q-145.63555555 0-145.63555556-145.63555556l0-291.2711111q0-145.63555555 145.63555556-145.63555556Z" fill="#34d1b2" p-id="2486" data-darkreader-inline-fill="" style="--darkreader-inline-fill:#000000;"></path><path d="M26.54814777 706.18074112a48.54518557 48.54518557 0 0 1 48.54518556-48.54518557h48.54518557a48.54518557 48.54518557 0 1 1 0 97.09037H75.09333333a48.54518557 48.54518557 0 0 1-48.54518556-48.54518443zM851.81629667 706.18074112a48.54518557 48.54518557 0 0 1 48.54518443-48.54518557h48.54518557a48.54518557 48.54518557 0 1 1 0 97.09037h-48.54518557a48.54518557 48.54518557 0 0 1-48.54518443-48.54518443zM26.54814777 512a48.54518557 48.54518557 0 0 1 48.54518556-48.54518557h48.54518557a48.54518557 48.54518557 0 1 1 0 97.09037114H75.09333333a48.54518557 48.54518557 0 0 1-48.54518556-48.54518557zM851.81629667 512a48.54518557 48.54518557 0 0 1 48.54518443-48.54518557h48.54518557a48.54518557 48.54518557 0 1 1 0 97.09037114h-48.54518557a48.54518557 48.54518557 0 0 1-48.54518443-48.54518557zM26.54814777 317.81925888a48.54518557 48.54518557 0 0 1 48.54518556-48.54518443h48.54518557a48.54518557 48.54518557 0 0 1 0 97.09037H75.09333333a48.54518557 48.54518557 0 0 1-48.54518556-48.54518557zM851.81629667 317.81925888a48.54518557 48.54518557 0 0 1 48.54518443-48.54518443h48.54518557a48.54518557 48.54518557 0 1 1 0 97.09037h-48.54518557a48.54518557 48.54518557 0 0 1-48.54518443-48.54518557zM706.18074112 26.54814777a48.54518557 48.54518557 0 0 1 48.54518443 48.54518556v48.54518557a48.54518557 48.54518557 0 1 1-97.09037 0V75.09333333a48.54518557 48.54518557 0 0 1 48.54518557-48.54518556zM706.18074112 851.81629667a48.54518557 48.54518557 0 0 1 48.54518443 48.54518443v48.54518557a48.54518557 48.54518557 0 1 1-97.09037 0v-48.54518557a48.54518557 48.54518557 0 0 1 48.54518557-48.54518443zM512 26.54814777a48.54518557 48.54518557 0 0 1 48.54518557 48.54518556v48.54518557a48.54518557 48.54518557 0 1 1-97.09037114 0V75.09333333a48.54518557 48.54518557 0 0 1 48.54518557-48.54518556zM512 851.81629667a48.54518557 48.54518557 0 0 1 48.54518557 48.54518443v48.54518557a48.54518557 48.54518557 0 1 1-97.09037114 0v-48.54518557a48.54518557 48.54518557 0 0 1 48.54518557-48.54518443zM317.81925888 26.54814777a48.54518557 48.54518557 0 0 1 48.54518557 48.54518556v48.54518557a48.54518557 48.54518557 0 0 1-97.09037 0V75.09333333a48.54518557 48.54518557 0 0 1 48.54518443-48.54518556zM317.81925888 851.81629667a48.54518557 48.54518557 0 0 1 48.54518557 48.54518443v48.54518557a48.54518557 48.54518557 0 1 1-97.09037 0v-48.54518557a48.54518557 48.54518557 0 0 1 48.54518443-48.54518443z" fill="#34d1b2" p-id="2487" data-darkreader-inline-fill="" style="--darkreader-inline-fill:#5c605f;"></path></svg>