<?xml version="1.0" standalone="no"?><!DOCTYPE svg PUBLIC "-//W3C//DTD SVG 1.1//EN" "http://www.w3.org/Graphics/SVG/1.1/DTD/svg11.dtd"><svg t="1617020798717" class="icon" viewBox="0 0 1024 1024" version="1.1" xmlns="http://www.w3.org/2000/svg" p-id="2667" xmlns:xlink="http://www.w3.org/1999/xlink" width="200" height="200"><defs><style type="text/css"></style></defs><path d="M737.365333 737.365333H286.592V286.592h450.773333m180.309334 180.309333V376.746667h-90.154667V286.592c0-50.048-40.533333-90.154667-90.154667-90.154667h-90.154666V106.282667h-90.154667v90.154666h-90.154667V106.282667H376.746667v90.154666H286.592c-50.048 0-90.154667 40.106667-90.154667 90.154667V376.746667H106.282667v90.154666h90.154666v90.154667H106.282667v90.154667h90.154666v90.154666a90.154667 90.154667 0 0 0 90.154667 90.154667H376.746667v90.154667h90.154666v-90.154667h90.154667v90.154667h90.154667v-90.154667h90.154666a90.154667 90.154667 0 0 0 90.154667-90.154667v-90.154666h90.154667v-90.154667h-90.154667v-90.154667m-270.464 90.154667h-90.154667v-90.154667h90.154667m90.154667-90.154666H376.746667v270.464h270.464z" fill="#2c2c2c" p-id="2668" data-spm-anchor-id="a313x.7781069.0.i4" class="selected"></path></svg>