<?xml version="1.0" standalone="no"?>
<!DOCTYPE svg PUBLIC "-//W3C//DTD SVG 1.1//EN" "http://www.w3.org/Graphics/SVG/1.1/DTD/svg11.dtd">
<svg t="1701098079075" class="icon" viewBox="0 0 1280 1024" version="1.1"
    xmlns="http://www.w3.org/2000/svg" p-id="7655" xmlns:xlink="http://www.w3.org/1999/xlink"
    width="250" height="200">
    <path
        d="M256 128c0-35.4 28.6-64 64-64h320c35.4 0 64 28.6 64 64v704h192V512c0-35.4 28.6-64 64-64h256c35.4 0 64 28.6 64 64s-28.6 64-64 64h-192v320c0 35.4-28.6 64-64 64H640c-35.4 0-64-28.6-64-64V192h-192v320c0 35.4-28.6 64-64 64H64c-35.4 0-64-28.6-64-64s28.6-64 64-64h192V128z"
        p-id="7656" fill="#cb81da"></path>
</svg>