<?xml version="1.0" standalone="no"?><!DOCTYPE svg PUBLIC "-//W3C//DTD SVG 1.1//EN" "http://www.w3.org/Graphics/SVG/1.1/DTD/svg11.dtd"><svg t="1701000026046" class="icon" viewBox="0 0 1024 1024" version="1.1" xmlns="http://www.w3.org/2000/svg" p-id="10173" xmlns:xlink="http://www.w3.org/1999/xlink" width="200" height="200"><path d="M810.666667 128a85.333333 85.333333 0 0 1 85.333333 85.333333v597.333334a85.333333 85.333333 0 0 1-85.333333 85.333333H213.333333a85.333333 85.333333 0 0 1-85.333333-85.333333V213.333333a85.333333 85.333333 0 0 1 85.333333-85.333333h597.333334zM384 330.965333L202.965333 512 384 693.034667l60.330667-60.373334L323.669333 512l120.661334-120.661333L384 330.965333z m256 0l-60.330667 60.373334L700.330667 512l-120.661334 120.661333L640 693.034667 821.034667 512 640 330.965333z" fill="#98C379" p-id="10174"></path></svg>